<?xml version="1.0" encoding="UTF-8" standalone="no"?>
<svg
   xmlns:dc="http://purl.org/dc/elements/1.1/"
   xmlns:cc="http://creativecommons.org/ns#"
   xmlns:rdf="http://www.w3.org/1999/02/22-rdf-syntax-ns#"
   xmlns:svg="http://www.w3.org/2000/svg"
   xmlns="http://www.w3.org/2000/svg"
   xmlns:sodipodi="http://sodipodi.sourceforge.net/DTD/sodipodi-0.dtd"
   xmlns:inkscape="http://www.inkscape.org/namespaces/inkscape"
   viewBox="0 0 850.98999 472.78002"
   id="svg2"
   version="1.1"
   inkscape:version="0.91 r13725"
   sodipodi:docname="brain.svg"
   width="850.98999"
   height="472.78003"
  style="position:absolute;z-index:10;">
  <defs
     id="defs6">
    <pattern
       y="0"
       x="0"
       height="6"
       width="6"
       patternUnits="userSpaceOnUse"
       id="EMFhbasepattern" />
    <clipPath
       id="clipPath30"
       clipPathUnits="userSpaceOnUse">
      <path
         inkscape:connector-curvature="0"
         id="path28"
         d="m 310.45,1203.32 103.906,0 0,-15.06 -103.906,0 z" />
    </clipPath>
    <pattern
       y="0"
       x="0"
       height="6"
       width="6"
       patternUnits="userSpaceOnUse"
       id="EMFhbasepattern-1" />
    <pattern
       y="0"
       x="0"
       height="6"
       width="6"
       patternUnits="userSpaceOnUse"
       id="EMFhbasepattern-6" />
  </defs>
  <metadata
     id="metadata25853">
    <rdf:RDF>
      <cc:Work
         rdf:about="">
        <dc:format>image/svg+xml</dc:format>
        <dc:type
           rdf:resource="http://purl.org/dc/dcmitype/StillImage" />
        <!--<dc:title>Icons_Set 1</dc:title>-->
      </cc:Work>
    </rdf:RDF>
  </metadata>
  <sodipodi:namedview
     pagecolor="#ffffff"
     bordercolor="#666666"
     borderopacity="1"
     objecttolerance="10"
     gridtolerance="10"
     guidetolerance="10"
     inkscape:pageopacity="0"
     inkscape:pageshadow="2"
     inkscape:window-width="1366"
     inkscape:window-height="705"
     id="namedview25851"
     showgrid="false"
     fit-margin-top="0"
     fit-margin-left="0"
     fit-margin-right="0"
     fit-margin-bottom="0"
     inkscape:zoom="0.69490554"
     inkscape:cx="331.3952"
     inkscape:cy="212.03845"
     inkscape:window-x="-4"
     inkscape:window-y="-4"
     inkscape:window-maximized="1"
     inkscape:current-layer="svg2" />
  <title
     id="title82">Icons_Set 1</title>
  <g
     id="g4726">
    <path
       inkscape:connector-curvature="0"
       d="m 399.85572,233.70592 c -5.85143,-4.23175 -13.03025,-6.73506 -20.78684,-6.73506 -3.37239,0 -6.10972,2.73636 -6.10972,6.11166 0,3.3753 2.73733,6.11166 6.10972,6.11166 12.86129,0 23.33191,10.46674 23.33191,23.33191 0,8.01586 -4.04143,15.37626 -10.81339,19.69152 -2.84803,1.81486 -3.68506,5.59216 -1.87312,8.43922 1.16621,1.82845 3.14614,2.82667 5.16297,2.82667 1.12542,0 2.26153,-0.30879 3.27625,-0.95646 10.31234,-6.57193 16.47353,-17.7883 16.47353,-30.00095 0,-7.42644 -2.29163,-14.3256 -6.201,-20.03429 7.99741,-6.73215 13.55558,-16.07055 15.58018,-26.46251 0.64573,-3.31218 -1.51578,-6.52144 -4.8299,-7.16815 -3.32093,-0.65738 -6.51853,1.51287 -7.16329,4.82797 -1.55074,7.93817 -5.90872,15.03543 -12.1573,20.01681"
       style="fill:#0077bd;fill-opacity:1;fill-rule:nonzero;stroke:none"
       id="path276" />
    <path
       inkscape:connector-curvature="0"
       d="m 443.37605,173.58042 c -9.90837,0.0835 -19.34197,-5.11927 -24.49421,-13.90418 -1.70518,-2.91309 -5.4485,-3.89189 -8.3645,-2.18385 -2.90916,1.70513 -3.88992,5.44942 -2.17797,8.36251 7.32059,12.50299 20.70333,19.96924 34.80655,19.96924 0.0767,0 0.15344,-0.005 0.23013,-0.005 l 0,118.7696 c 0,14.18389 -9.02279,26.91992 -22.45024,31.69542 -3.17622,1.13028 -4.83668,4.62599 -3.70443,7.80417 0.8914,2.50431 3.24518,4.06762 5.75627,4.06762 0.67875,0 1.37206,-0.1155 2.0479,-0.35729 7.17297,-2.54895 13.40313,-6.7875 18.3505,-12.14372 l 0,16.23465 c 0,18.53403 -15.08107,33.61509 -33.6132,33.61509 -18.53206,0 -33.61313,-15.08106 -33.61313,-33.61509 0,-0.67292 0.0386,-1.34002 0.0787,-2.00617 0.0233,-0.33501 0.0444,-0.67096 0.0757,-1.004 l 0.0197,-0.21266 c 1.24877,-12.86034 9.8686,-24.06409 22.26576,-28.47356 3.18401,-1.13123 4.84739,-4.62693 3.71514,-7.80514 -1.13224,-3.18304 -4.63473,-4.84544 -7.80417,-3.71031 -14.81503,5.2659 -25.68763,17.66498 -29.28529,32.4664 -14.25084,-4.02975 -24.41461,-17.03284 -24.41461,-32.30812 0,-5.75141 1.52354,-11.46204 4.41042,-16.51917 4.21618,-6.93898 11.0299,-12.44083 18.71857,-15.10146 3.184,-1.10308 4.88234,-4.58326 3.77434,-7.77309 -1.09823,-3.1908 -4.59001,-4.88331 -7.77016,-3.77731 -8.66549,2.9966 -16.50557,8.69072 -22.15893,15.95597 -11.02022,-5.74559 -18.16894,-17.18529 -18.16894,-29.75528 0,-11.71256 6.16606,-22.48032 16.02396,-28.57159 3.56948,3.69186 7.68568,6.74672 12.29324,9.07817 0.88463,0.44764 1.82848,0.66127 2.75775,0.66127 2.22946,0 4.37736,-1.22932 5.4552,-3.35588 1.52646,-3.01214 0.31563,-6.68749 -2.68973,-8.21103 -3.13936,-1.58764 -6.05537,-3.70642 -8.57708,-6.20391 l -2.75775,-3.51999 c -5.73588,-7.31962 -8.17901,-16.3502 -6.88851,-25.43321 2.15182,-15.06457 14.53151,-26.7548 29.28435,-28.59005 1.19822,7.50995 4.25019,14.57128 9.01506,20.72179 1.2002,1.55268 3.00821,2.36737 4.83668,2.36737 1.30703,0 2.62469,-0.41851 3.73946,-1.28079 2.66934,-2.06732 3.15582,-5.90775 1.08367,-8.57517 -4.29295,-5.53973 -6.66712,-12.08641 -6.97102,-19.00791 l -0.0204,-0.74575 -0.0408,-0.75449 c 0,-18.53405 15.08107,-33.61512 33.61313,-33.61512 18.53213,0 33.6132,15.08107 33.6132,33.61512 z m -33.6132,-68.97421 c -23.57564,0 -43.05446,17.88735 -45.56554,40.80171 -20.88591,1.92652 -38.03819,17.8689 -41.07166,39.17815 -1.43324,10.03657 0.46704,20.0139 5.37946,28.73667 -13.02246,8.36833 -21.12282,22.83377 -21.12282,38.54309 0,17.00371 9.54816,32.50426 24.33406,40.39971 -2.06538,5.28144 -3.14227,10.90855 -3.14227,16.57063 0,21.57146 14.85479,39.85496 35.37656,44.62661 0.83023,24.55152 21.06361,44.26535 45.81221,44.26535 25.27688,0 45.83944,-20.56248 45.83944,-45.83842 l 0,-201.44505 c 0,-25.27494 -20.56256,-45.83845 -45.83944,-45.83845"
       style="fill:#0077bd;fill-opacity:1;fill-rule:nonzero;stroke:none"
       id="path280" />
    <path
       inkscape:connector-curvature="0"
       d="m 581.12189,282.95715 c -5.33775,0 -9.68797,-4.34633 -9.68797,-9.68991 0,-5.34455 4.35022,-9.69185 9.68797,-9.69185 5.34843,0 9.69476,4.3473 9.69476,9.69185 0,5.34358 -4.34633,9.68991 -9.69476,9.68991 m 0,-31.60509 c -12.07961,0 -21.91129,9.83071 -21.91129,21.91518 0,5.64169 2.16151,10.77455 5.6747,14.66255 -0.33986,0.37676 -0.65351,0.78557 -0.89918,1.25749 l -9.92781,19.072 -80.1226,0 c -3.3753,0 -6.11361,2.73636 -6.11361,6.11166 0,3.37725 2.73831,6.11167 6.11361,6.11167 l 83.83096,0 c 2.27804,0 4.37061,-1.26526 5.42029,-3.28791 l 11.64363,-22.36282 c 0.0893,-0.17188 0.13885,-0.35249 0.20974,-0.52824 1.93429,0.56028 3.97054,0.87684 6.08156,0.87684 12.08932,0 21.91809,-9.82877 21.91809,-21.91324 0,-12.08447 -9.82877,-21.91518 -21.91809,-21.91518"
       style="fill:#0077bd;fill-opacity:1;fill-rule:nonzero;stroke:none"
       id="path284" />
    <path
       inkscape:connector-curvature="0"
       d="m 515.93006,264.1951 c 5.34843,0 9.69185,4.34633 9.69185,9.68991 0,5.34455 -4.34342,9.69088 -9.69185,9.69088 -5.34164,0 -9.68797,-4.34633 -9.68797,-9.69088 0,-5.34358 4.34633,-9.68991 9.68797,-9.68991 m -41.99414,15.80157 20.96745,0 c 2.65383,9.11603 11.06878,15.80255 21.02669,15.80255 12.08932,0 21.91809,-9.82974 21.91809,-21.91421 0,-12.08447 -9.82877,-21.91324 -21.91809,-21.91324 -9.95791,0 -18.37286,6.68555 -21.02669,15.80158 l -20.96745,0 c -3.37627,0 -6.1136,2.73539 -6.1136,6.11166 0,3.37724 2.73733,6.11166 6.1136,6.11166"
       style="fill:#0077bd;fill-opacity:1;fill-rule:nonzero;stroke:none"
       id="path288" />
    <path
       inkscape:connector-curvature="0"
       d="m 515.93006,142.77352 c 5.34843,0 9.69185,4.34633 9.69185,9.68991 0,5.34455 -4.34342,9.69282 -9.69185,9.69282 -5.34164,0 -9.68797,-4.34827 -9.68797,-9.69282 0,-5.34358 4.34633,-9.68991 9.68797,-9.68991 m -41.99414,15.80157 20.96745,0 c 2.65383,9.117 11.06878,15.80449 21.02669,15.80449 12.08932,0 21.91809,-9.83168 21.91809,-21.91615 0,-12.08447 -9.82877,-21.91324 -21.91809,-21.91324 -9.95791,0 -18.37286,6.68555 -21.02669,15.80158 l -20.96745,0 c -3.37627,0 -6.1136,2.73636 -6.1136,6.11166 0,3.37724 2.73733,6.11166 6.1136,6.11166"
       style="fill:#0077bd;fill-opacity:1;fill-rule:nonzero;stroke:none"
       id="path292" />
    <path
       inkscape:connector-curvature="0"
       d="m 540.37992,370.47551 c -5.34164,0 -9.69088,-4.34633 -9.69088,-9.68991 0,-5.34455 4.34924,-9.69088 9.69088,-9.69088 5.34455,0 9.69185,4.34633 9.69185,9.69088 0,5.34358 -4.3473,9.68991 -9.69185,9.68991 m 0,-31.60412 c -9.95986,0 -18.37577,6.68555 -21.03057,15.80255 l -45.41313,0 c -3.37628,0 -6.11361,2.73442 -6.11361,6.11166 0,3.3753 2.73733,6.11166 6.11361,6.11166 l 45.41313,0 c 2.6548,9.11603 11.07071,15.80158 21.03057,15.80158 12.08641,0 21.91518,-9.82877 21.91518,-21.91324 0,-12.08447 -9.82877,-21.91421 -21.91518,-21.91421"
       style="fill:#0077bd;fill-opacity:1;fill-rule:nonzero;stroke:none"
       id="path296" />
    <path
       inkscape:connector-curvature="0"
       d="m 572.97448,184.69386 c 5.34843,0 9.69088,4.34827 9.69088,9.69379 0,5.34261 -4.34245,9.68894 -9.69088,9.68894 -5.34164,0 -9.69185,-4.34633 -9.69185,-9.68894 0,-5.34552 4.35021,-9.69379 9.69185,-9.69379 m -99.03827,52.84346 36.14465,0 21.94917,-38.24791 19.60606,0 c 2.23434,9.72875 10.94546,17.01245 21.33839,17.01245 12.08641,0 21.91809,-9.83071 21.91809,-21.91421 0,-12.08544 -9.83168,-21.91712 -21.91809,-21.91712 -9.51027,0 -17.60478,6.10584 -20.62759,14.59556 l -27.39762,0 -21.94916,38.2479 -29.0639,0 c -3.37627,0 -6.11361,2.73442 -6.11361,6.11166 0,3.37627 2.73734,6.11167 6.11361,6.11167"
       style="fill:#0077bd;fill-opacity:1;fill-rule:nonzero;stroke:none"
       id="path300" />
  </g>
</svg>
